ply
format ascii 1.0
comment Exported by [ProBuilder](http://www.procore3d.com/probuilder)
comment 18/11/2022 20:04:18
element vertex 88
property float32 x
property float32 y
property float32 z
property float32 nx
property float32 ny
property float32 nz
property uint8 red
property uint8 green
property uint8 blue
property uint8 alpha
element face 26
property list uint8 int32 vertex_index
end_header
3224.435 0.5711756 -1958.625 0 0 -1 255 255 255 255
3224.435 126.3383 -1958.625 0 0 -1 255 255 255 255
3115.517 63.45475 -1958.625 0 0 -1 255 255 255 255
3115.517 -62.31438 -1958.625 0 0 -1 255 255 255 255
3224.435 0.5711756 -1958.625 0 0 -1 255 255 255 255
3115.517 -62.31438 -1958.625 0 0 -1 255 255 255 255
3224.435 -125.1979 -1958.625 0 0 -1 255 255 255 255
3224.435 0.5711756 -1958.625 0 0 -1 255 255 255 255
3224.435 -125.1979 -1958.625 0 0 -1 255 255 255 255
3333.353 -62.31239 -1958.625 0 0 -1 255 255 255 255
3224.435 0.5711756 -1958.625 0 0 -1 255 255 255 255
3333.353 -62.31239 -1958.625 0 0 -1 255 255 255 255
3333.353 63.45475 -1958.625 0 0 -1 255 255 255 255
3224.435 126.3383 -1958.625 0 0 -1 255 255 255 255
3157.17 63.03448 -1958.625 0 0 1 255 255 255 255
3157.661 57.24589 -1958.625 0 0 1 255 255 255 255
3157.17 51.45927 -1958.625 0 0 1 255 255 255 255
3155.717 68.60105 -1958.625 0 0 1 255 255 255 255
3157.17 51.45927 -1958.625 0 0 1 255 255 255 255
3155.717 45.8927 -1958.625 0 0 1 255 255 255 255
3155.717 68.60105 -1958.625 0 0 1 255 255 255 255
3153.357 73.73148 -1958.625 0 0 1 255 255 255 255
3155.717 45.8927 -1958.625 0 0 1 255 255 255 255
3153.357 40.76226 -1958.625 0 0 1 255 255 255 255
3153.357 73.73148 -1958.625 0 0 1 255 255 255 255
3150.182 78.22756 -1958.625 0 0 1 255 255 255 255
3153.357 40.76226 -1958.625 0 0 1 255 255 255 255
3150.182 36.26619 -1958.625 0 0 1 255 255 255 255
3150.182 78.22756 -1958.625 0 0 1 255 255 255 255
3150.182 36.26619 -1958.625 0 0 1 255 255 255 255
3146.312 81.9168 -1958.625 0 0 1 255 255 255 255
3150.182 78.22756 -1958.625 0 0 1 255 255 255 255
3150.182 36.26619 -1958.625 0 0 1 255 255 255 255
3146.312 32.57695 -1958.625 0 0 1 255 255 255 255
3146.312 81.9168 -1958.625 0 0 1 255 255 255 255
3146.312 32.57695 -1958.625 0 0 1 255 255 255 255
3141.897 84.65845 -1958.625 0 0 1 255 255 255 255
3146.312 81.9168 -1958.625 0 0 1 255 255 255 255
3146.312 32.57695 -1958.625 0 0 1 255 255 255 255
3141.897 29.8353 -1958.625 0 0 1 255 255 255 255
3141.897 84.65845 -1958.625 0 0 1 255 255 255 255
3141.897 29.8353 -1958.625 0 0 1 255 255 255 255
3137.107 86.34745 -1958.625 0 0 1 255 255 255 255
3141.897 84.65845 -1958.625 0 0 1 255 255 255 255
3141.897 29.8353 -1958.625 0 0 1 255 255 255 255
3137.107 28.1463 -1958.625 0 0 1 255 255 255 255
3137.107 86.34745 -1958.625 0 0 1 255 255 255 255
3137.107 28.1463 -1958.625 0 0 1 255 255 255 255
3132.125 86.9164 -1958.625 0 0 1 255 255 255 255
3137.107 86.34745 -1958.625 0 0 1 255 255 255 255
3137.107 28.1463 -1958.625 0 0 1 255 255 255 255
3132.125 27.57735 -1958.625 0 0 1 255 255 255 255
3132.125 86.9164 -1958.625 0 0 1 255 255 255 255
3127.144 86.34745 -1958.625 0 0 1 255 255 255 255
3132.125 27.57735 -1958.625 0 0 1 255 255 255 255
3127.144 28.1463 -1958.625 0 0 1 255 255 255 255
3127.144 86.34745 -1958.625 0 0 1 255 255 255 255
3122.353 84.65845 -1958.625 0 0 1 255 255 255 255
3127.144 28.1463 -1958.625 0 0 1 255 255 255 255
3122.353 29.8353 -1958.625 0 0 1 255 255 255 255
3122.353 84.65845 -1958.625 0 0 1 255 255 255 255
3117.938 81.9168 -1958.625 0 0 1 255 255 255 255
3122.353 29.8353 -1958.625 0 0 1 255 255 255 255
3117.938 32.57695 -1958.625 0 0 1 255 255 255 255
3117.938 81.9168 -1958.625 0 0 1 255 255 255 255
3114.069 78.22756 -1958.625 0 0 1 255 255 255 255
3117.938 32.57695 -1958.625 0 0 1 255 255 255 255
3114.069 36.26619 -1958.625 0 0 1 255 255 255 255
3114.069 78.22756 -1958.625 0 0 1 255 255 255 255
3114.069 36.26619 -1958.625 0 0 1 255 255 255 255
3110.893 73.73148 -1958.625 0 0 1 255 255 255 255
3114.069 78.22756 -1958.625 0 0 1 255 255 255 255
3114.069 36.26619 -1958.625 0 0 1 255 255 255 255
3110.893 40.76226 -1958.625 0 0 1 255 255 255 255
3110.893 73.73148 -1958.625 0 0 1 255 255 255 255
3110.893 40.76226 -1958.625 0 0 1 255 255 255 255
3108.533 68.60105 -1958.625 0 0 1 255 255 255 255
3110.893 73.73148 -1958.625 0 0 1 255 255 255 255
3110.893 40.76226 -1958.625 0 0 1 255 255 255 255
3108.533 45.8927 -1958.625 0 0 1 255 255 255 255
3108.533 68.60105 -1958.625 0 0 1 255 255 255 255
3108.533 45.8927 -1958.625 0 0 1 255 255 255 255
3107.08 63.03448 -1958.625 0 0 1 255 255 255 255
3108.533 68.60105 -1958.625 0 0 1 255 255 255 255
3108.533 45.8927 -1958.625 0 0 1 255 255 255 255
3107.08 51.45927 -1958.625 0 0 1 255 255 255 255
3107.08 63.03448 -1958.625 0 0 1 255 255 255 255
3106.589 57.24589 -1958.625 0 0 1 255 255 255 255
3 6 5 4
3 9 8 7
3 28 27 26
3 31 30 29
3 34 33 32
3 37 36 35
3 40 39 38
3 43 42 41
3 46 45 44
3 49 48 47
3 68 67 66
3 71 70 69
3 74 73 72
3 77 76 75
3 80 79 78
3 83 82 81
4 3 2 1 0
4 13 12 11 10
4 17 16 15 14
4 20 21 19 18
4 24 25 23 22
4 52 53 51 50
4 56 57 55 54
4 60 61 59 58
4 64 65 63 62
4 86 87 85 84
