<svg width="26" height="26" viewBox="0 0 26 26" fill="none" xmlns="http://www.w3.org/2000/svg">
<g opacity="0.8" clip-path="url(#clip0_75_1616)">
<path d="M25.9611 0.507568H22.0852L8.93086 13.662L7.14314 11.8742L6.55323 10.1049C6.45673 9.81415 6.17735 9.63783 5.8734 9.67511C5.56945 9.71239 5.34095 9.95143 5.31726 10.2571L5.06638 13.5194L7.69007 16.1431L3.15059 20.683H1.95849C1.40849 20.683 0.961121 21.1304 0.961121 21.6804V24.5102C0.961121 25.0602 1.40849 25.5076 1.95849 25.5076H4.78831C5.33831 25.5076 5.78568 25.0602 5.78568 24.5102V23.0098L10.1716 18.6238L12.8124 21.2646L15.8238 20.7624C16.1243 20.7128 16.3423 20.4655 16.3545 20.1615C16.3668 19.8576 16.1695 19.5935 15.8738 19.5194L14.4278 19.158L12.6545 17.3848L25.9611 4.23081V0.507568ZM4.90849 24.5102C4.90849 24.5764 4.85454 24.6304 4.78831 24.6304H1.95849C1.89226 24.6304 1.83831 24.5764 1.83831 24.5102V21.6804C1.83831 21.6141 1.89226 21.5602 1.95849 21.5602H2.2734H4.78831C4.85454 21.5602 4.90849 21.6141 4.90849 21.6804V23.887V24.5102ZM5.78568 21.7694V21.6804C5.78568 21.1304 5.33831 20.683 4.78831 20.683H4.39095L8.31112 16.7628L8.93261 17.3843L9.55147 18.0032L5.78568 21.7694ZM14.5322 20.0887L13.1133 20.3256L10.7918 18.0041L9.54928 16.7615L5.97252 13.1848L6.10059 11.5198L6.37691 12.3488L8.31112 14.283L10.1642 16.1361L13.9795 19.9514L14.5322 20.0887ZM12.0344 16.7646L10.7966 15.5269L9.55147 14.2817L22.4484 1.38476H24.3094L11.4124 14.2821C11.2409 14.4536 11.2409 14.7308 11.4124 14.9023C11.498 14.9878 11.6102 15.0308 11.7225 15.0308C11.8348 15.0308 11.9471 14.9878 12.0326 14.9023L25.0839 1.85055V3.86459L12.0344 16.7646Z" fill="white"/>
</g>
<defs>
<clipPath id="clip0_75_1616">
<rect width="25" height="25" fill="white" transform="translate(0.961121 0.507568)"/>
</clipPath>
</defs>
</svg>
