<svg width="29" height="26" viewBox="0 0 29 26" fill="none" xmlns="http://www.w3.org/2000/svg">
<path d="M13.411 25.2491C13.7649 25.6029 14.2406 25.8002 14.7395 25.8002C15.2325 25.8002 15.7198 25.5971 16.0679 25.2491L26.4924 14.8246C28.0761 13.2409 28.9462 11.1351 28.952 8.9017C28.952 6.66249 28.0819 4.5567 26.4982 2.97302C24.9145 1.38933 22.8145 0.51917 20.5753 0.51917C18.3767 0.51917 16.3057 1.36032 14.7337 2.8918C13.1558 1.35452 11.079 0.507568 8.87459 0.507568C6.64118 0.507568 4.5412 1.37773 2.95751 2.95561C1.37382 4.5393 0.503662 6.64509 0.503662 8.88429C0.503662 11.1177 1.37962 13.2235 2.96331 14.8072L13.411 25.2491ZM3.96689 3.965C5.27793 2.65396 7.02405 1.92883 8.88039 1.92883C10.7367 1.92883 12.4886 2.65396 13.8055 3.9708L14.2348 4.40008C14.3682 4.5335 14.548 4.60891 14.7395 4.60891C14.9251 4.60891 15.1107 4.5335 15.2441 4.40008L15.6618 3.9824C16.9787 2.66556 18.7248 1.94043 20.5869 1.94043C22.4433 1.94043 24.1894 2.66556 25.5004 3.9766C26.8172 5.29344 27.5366 7.03956 27.5366 8.8959C27.5366 10.7522 26.8114 12.4984 25.4946 13.8152L15.0643 24.2455C14.8961 24.4137 14.5886 24.4137 14.4146 24.2455L3.97269 13.8036C2.65585 12.4867 1.93072 10.7406 1.93072 8.88429C1.93072 7.02796 2.65585 5.28184 3.96689 3.965Z" fill="white"/>
</svg>
