<svg width="28" height="27" viewBox="0 0 28 27" fill="none" xmlns="http://www.w3.org/2000/svg">
<path d="M26.8508 22.2031C26.8205 19.853 24.9004 17.9502 22.5432 17.9502H20.8426L19.814 16.9217C18.0459 15.1535 17.5027 12.5106 18.4301 10.1885L19.35 7.8854C19.6663 7.0932 19.481 6.19155 18.8778 5.58848L14.93 1.64063C14.4921 1.20259 13.9097 0.961426 13.2903 0.961426C12.671 0.961426 12.0886 1.20259 11.6507 1.64063L3.93147 9.35994L3.85778 9.28713C3.51274 8.9464 2.9574 8.94806 2.61441 9.29105L0.677432 11.228C0.332978 11.5725 0.333076 12.1309 0.677432 12.4753L13.0406 24.8384C14.3057 26.1036 15.9877 26.8002 17.7767 26.8002H26.7381C27.2252 26.8002 27.62 26.4054 27.62 25.9182V23.0772C27.6199 22.6283 27.2845 22.2587 26.8508 22.2031ZM12.898 2.88782C13.0027 2.78297 13.1421 2.72525 13.2903 2.72525C13.4386 2.72525 13.578 2.78297 13.6828 2.88782L17.6307 6.83567C17.7345 6.93955 17.7664 7.09477 17.712 7.23118L16.7921 9.53417C16.6373 9.92175 16.5152 10.3165 16.4235 10.7146H14.1927C13.7055 10.7146 13.3107 11.1095 13.3107 11.5966C13.3107 12.0837 13.7055 12.4785 14.1927 12.4785H16.2203C16.2198 12.6107 16.2228 12.7426 16.2288 12.8744H14.8787C14.3915 12.8744 13.9967 13.2693 13.9967 13.7564C13.9967 14.2435 14.3915 14.6384 14.8787 14.6384H16.5089C16.5457 14.7713 16.5863 14.9033 16.6299 15.0343H15.5646C15.0775 15.0343 14.6827 15.4291 14.6827 15.9162C14.6827 16.4034 15.0775 16.7982 15.5646 16.7982H17.4675C17.7784 17.2873 18.1453 17.7476 18.5668 18.1691L19.8537 19.4559C20.0191 19.6213 20.2434 19.7142 20.4773 19.7142H22.5433C23.9251 19.7142 25.0525 20.8215 25.0867 22.1952H18.9547C17.6367 22.1952 16.3978 21.682 15.4619 20.7462L5.1866 10.5993L12.898 2.88782ZM25.856 25.0363H17.7766C16.4587 25.0363 15.2198 24.5231 14.2878 23.5911L2.54836 11.8517L3.24198 11.158L14.2186 21.9973C15.4836 23.2624 17.1656 23.9591 18.9546 23.9591H25.856V25.0363Z" fill="white"/>
</svg>
